<svg width="202" height="32" viewBox="0 0 202 32" fill="none" xmlns="http://www.w3.org/2000/svg">
    <path fill-rule="evenodd" clip-rule="evenodd" d="M36.9173 22.9504C36.4708 22.7798 36.1788 22.4201 36.1788 21.9405C36.1788 21.359 36.6594 20.88 37.2435 20.88C37.4153 20.88 37.5523 20.914 37.6727 20.9653C38.4286 21.3077 39.2354 21.5129 40.2145 21.5129C42.0005 21.5129 42.842 20.6576 42.842 19.0143V18.5693C42.0687 19.4939 41.2278 20.0581 39.8369 20.0581C37.69 20.0581 35.749 18.5007 35.749 15.7796V15.7457C35.749 13.0073 37.7241 11.4672 39.8369 11.4672C41.2619 11.4672 42.1034 12.0661 42.8073 12.8361V12.8188C42.8073 12.1174 43.3914 11.5358 44.1126 11.5358C44.8338 11.5358 45.4174 12.1174 45.4174 12.8361V18.7405C45.4174 20.3838 45.023 21.5815 44.2497 22.3515C43.3914 23.2074 42.0687 23.5838 40.2834 23.5838C39.0636 23.5838 37.9988 23.3786 36.9173 22.9504ZM42.842 15.7796V15.7457C42.842 14.4961 41.8628 13.6234 40.5922 13.6234C39.3216 13.6234 38.3597 14.4961 38.3597 15.7457V15.7796C38.3597 17.0459 39.3216 17.9019 40.5922 17.9019C41.8628 17.9019 42.842 17.0293 42.842 15.7796Z" fill="#4C4C4C"/>
    <path fill-rule="evenodd" clip-rule="evenodd" d="M36.9173 22.9504C36.4708 22.7798 36.1788 22.4201 36.1788 21.9405C36.1788 21.359 36.6594 20.88 37.2435 20.88C37.4153 20.88 37.5523 20.914 37.6727 20.9653C38.4286 21.3077 39.2354 21.5129 40.2145 21.5129C42.0005 21.5129 42.842 20.6576 42.842 19.0143V18.5693C42.0687 19.4939 41.2278 20.0581 39.8369 20.0581C37.69 20.0581 35.749 18.5007 35.749 15.7796V15.7457C35.749 13.0073 37.7241 11.4672 39.8369 11.4672C41.2619 11.4672 42.1034 12.0661 42.8073 12.8361V12.8188C42.8073 12.1174 43.3914 11.5358 44.1126 11.5358C44.8338 11.5358 45.4174 12.1174 45.4174 12.8361V18.7405C45.4174 20.3838 45.023 21.5815 44.2497 22.3515C43.3914 23.2074 42.0687 23.5838 40.2834 23.5838C39.0636 23.5838 37.9988 23.3786 36.9173 22.9504ZM42.842 15.7796V15.7457C42.842 14.4961 41.8628 13.6234 40.5922 13.6234C39.3216 13.6234 38.3597 14.4961 38.3597 15.7457V15.7796C38.3597 17.0459 39.3216 17.9019 40.5922 17.9019C41.8628 17.9019 42.842 17.0293 42.842 15.7796Z" fill="#4C4C4C"/>
    <path fill-rule="evenodd" clip-rule="evenodd" d="M46.8951 12.8361C46.8951 12.1174 47.4787 11.5358 48.2005 11.5358C48.9217 11.5358 49.5052 12.1174 49.5052 12.8361V13.2464C49.8835 12.3571 50.5012 11.5358 51.2745 11.5358C52.0819 11.5358 52.5451 12.0661 52.5451 12.8015C52.5451 13.4862 52.0986 13.8972 51.5665 14.0171C50.2438 14.3255 49.5052 15.3347 49.5052 17.1831V19.6131C49.5052 20.3319 48.9217 20.914 48.2005 20.914C47.4787 20.914 46.8951 20.3319 46.8951 19.6131V12.8361Z" fill="#4C4C4C"/>
    <path fill-rule="evenodd" clip-rule="evenodd" d="M52.2363 18.1756V18.1417C52.2363 16.1393 53.7643 15.2148 55.9459 15.2148C56.8729 15.2148 57.5427 15.3687 58.1957 15.5912V15.4373C58.1957 14.3595 57.5253 13.76 56.2206 13.76C55.4994 13.76 54.9152 13.8632 54.4173 14.0171C54.2628 14.0684 54.1599 14.0857 54.0396 14.0857C53.4387 14.0857 52.9575 13.6234 52.9575 13.024C52.9575 12.5623 53.2489 12.1686 53.6619 12.0141C54.4861 11.7064 55.3791 11.5358 56.5982 11.5358C58.0233 11.5358 59.0539 11.9122 59.7063 12.5623C60.3934 13.2464 60.7028 14.2569 60.7028 15.4892V19.6644C60.7028 20.3665 60.136 20.914 59.4316 20.914C58.6763 20.914 58.1783 20.3838 58.1783 19.8356V19.8183C57.5427 20.5204 56.6671 20.982 55.3958 20.982C53.6619 20.982 52.2363 19.9901 52.2363 18.1756ZM58.2298 17.5768V17.1145C57.7833 16.9094 57.1998 16.7722 56.5635 16.7722C55.4473 16.7722 54.7608 17.2171 54.7608 18.0391V18.0731C54.7608 18.7751 55.345 19.1855 56.1859 19.1855C57.4056 19.1855 58.2298 18.518 58.2298 17.5768Z" fill="#4C4C4C"/>
    <path fill-rule="evenodd" clip-rule="evenodd" d="M62.0944 12.8361C62.0944 12.1174 62.6779 11.5358 63.3998 11.5358C64.121 11.5358 64.7051 12.1174 64.7051 12.8361V12.9393C65.3054 12.1686 66.0961 11.4672 67.4182 11.4672C68.62 11.4672 69.5303 11.9975 70.0109 12.922C70.8183 11.9808 71.7801 11.4672 73.0334 11.4672C74.9744 11.4672 76.1421 12.6309 76.1421 14.839V19.6131C76.1421 20.3319 75.5579 20.914 74.8367 20.914C74.1155 20.914 73.5314 20.3319 73.5314 19.6131V15.6944C73.5314 14.4621 72.9819 13.8286 72.0034 13.8286C71.0242 13.8286 70.4233 14.4621 70.4233 15.6944V19.6131C70.4233 20.3319 69.8398 20.914 69.1179 20.914C68.3967 20.914 67.8126 20.3319 67.8126 19.6131V15.6944C67.8126 14.4621 67.2638 13.8286 66.2846 13.8286C65.3054 13.8286 64.7051 14.4621 64.7051 15.6944V19.6131C64.7051 20.3319 64.121 20.914 63.3998 20.914C62.6779 20.914 62.0944 20.3319 62.0944 19.6131V12.8361Z" fill="#4C4C4C"/>
    <path fill-rule="evenodd" clip-rule="evenodd" d="M77.551 12.8361C77.551 12.1174 78.1345 11.5358 78.8564 11.5358C79.5776 11.5358 80.1617 12.1174 80.1617 12.8361V12.9393C80.762 12.1686 81.5527 11.4672 82.8748 11.4672C84.0766 11.4672 84.9869 11.9975 85.4675 12.922C86.2749 11.9808 87.2367 11.4672 88.49 11.4672C90.431 11.4672 91.5987 12.6309 91.5987 14.839V19.6131C91.5987 20.3319 91.0151 20.914 90.2933 20.914C89.5721 20.914 88.988 20.3319 88.988 19.6131V15.6944C88.988 14.4621 88.4385 13.8286 87.46 13.8286C86.4808 13.8286 85.8799 14.4621 85.8799 15.6944V19.6131C85.8799 20.3319 85.2964 20.914 84.5745 20.914C83.8533 20.914 83.2698 20.3319 83.2698 19.6131V15.6944C83.2698 14.4621 82.7204 13.8286 81.7412 13.8286C80.762 13.8286 80.1617 14.4621 80.1617 15.6944V19.6131C80.1617 20.3319 79.5776 20.914 78.8564 20.914C78.1345 20.914 77.551 20.3319 77.551 19.6131V12.8361Z" fill="#4C4C4C"/>
    <path fill-rule="evenodd" clip-rule="evenodd" d="M92.4582 18.1756V18.1417C92.4582 16.1393 93.9868 15.2148 96.1671 15.2148C97.0949 15.2148 97.7646 15.3687 98.417 15.5912V15.4373C98.417 14.3595 97.7478 13.76 96.4419 13.76C95.7207 13.76 95.1371 13.8632 94.6392 14.0171C94.4847 14.0684 94.3818 14.0857 94.2615 14.0857C93.66 14.0857 93.1794 13.6234 93.1794 13.024C93.1794 12.5623 93.4715 12.1686 93.8832 12.0141C94.708 11.7064 95.601 11.5358 96.8201 11.5358C98.2458 11.5358 99.2758 11.9122 99.9282 12.5623C100.615 13.2464 100.924 14.2569 100.924 15.4892V19.6644C100.924 20.3665 100.358 20.914 99.6541 20.914C98.8982 20.914 98.4002 20.3838 98.4002 19.8356V19.8183C97.7646 20.5204 96.8884 20.982 95.6183 20.982C93.8832 20.982 92.4582 19.9901 92.4582 18.1756ZM98.4517 17.5768V17.1145C98.0052 16.9094 97.421 16.7722 96.786 16.7722C95.6692 16.7722 94.9827 17.2171 94.9827 18.0391V18.0731C94.9827 18.7751 95.5662 19.1855 96.4078 19.1855C97.6269 19.1855 98.4517 18.518 98.4517 17.5768Z" fill="#4C4C4C"/>
    <path fill-rule="evenodd" clip-rule="evenodd" d="M102.316 12.8361C102.316 12.1174 102.9 11.5358 103.621 11.5358C104.343 11.5358 104.926 12.1174 104.926 12.8361V13.2464C105.304 12.3571 105.922 11.5358 106.696 11.5358C107.502 11.5358 107.966 12.0661 107.966 12.8015C107.966 13.4862 107.519 13.8972 106.987 14.0171C105.665 14.3255 104.926 15.3347 104.926 17.1831V19.6131C104.926 20.3319 104.343 20.914 103.621 20.914C102.9 20.914 102.316 20.3319 102.316 19.6131V12.8361Z" fill="#4C4C4C"/>
    <path fill-rule="evenodd" clip-rule="evenodd" d="M108.756 9.51555C108.756 8.79681 109.34 8.21527 110.061 8.21527C110.783 8.21527 111.367 8.79681 111.367 9.51555V19.6131C111.367 20.3319 110.783 20.914 110.061 20.914C109.34 20.914 108.756 20.3319 108.756 19.6131V9.51555Z" fill="#4C4C4C"/>
    <path fill-rule="evenodd" clip-rule="evenodd" d="M113.445 23.3613C113.067 23.2247 112.62 22.9164 112.62 22.2835C112.62 21.6501 113.118 21.2218 113.651 21.2218C113.857 21.2218 113.977 21.2564 114.08 21.2904C114.303 21.359 114.441 21.3936 114.63 21.3936C115.093 21.3936 115.317 21.3077 115.557 20.8454L115.643 20.6403L112.501 13.3836C112.432 13.2125 112.363 12.956 112.363 12.7848C112.363 12.0488 112.93 11.5358 113.651 11.5358C114.303 11.5358 114.681 11.8949 114.904 12.5104L116.897 17.8506L118.82 12.5277C119.026 11.9808 119.403 11.5358 120.074 11.5358C120.743 11.5358 121.309 12.0488 121.309 12.7335C121.309 12.9393 121.241 13.2298 121.19 13.3497L117.978 21.0339C117.205 22.8991 116.433 23.6011 114.87 23.6011C114.286 23.6011 113.874 23.5158 113.445 23.3613Z" fill="#4C4C4C"/>
    <path fill-rule="evenodd" clip-rule="evenodd" d="M28.5257 16.2141C28.5257 24.064 22.1403 30.4282 14.2629 30.4282C6.38604 30.4282 0 24.064 0 16.2141C0 8.36359 6.38604 2 14.2629 2C22.1403 2 28.5257 8.36359 28.5257 16.2141Z" fill="#15C39A"/>
    <path fill-rule="evenodd" clip-rule="evenodd" d="M16.1268 19.2831C16.2112 19.7485 16.6502 20.0673 17.1246 20.0673H18.6191L19.4854 19.9462C18.0994 21.9727 15.6927 22.9052 13.0616 22.4936C10.9196 22.1587 9.07973 20.7144 8.30334 18.6972C6.54094 14.1184 9.89644 9.74667 14.2689 9.74667C16.5479 9.74667 18.5459 11.076 19.6919 12.6816C19.9964 13.1185 20.5998 13.2786 21.0388 12.9751C21.4556 12.6871 21.5771 12.1402 21.3266 11.7101C19.7415 9.24423 16.8933 7.66647 13.6904 7.8803C9.52002 8.15902 6.1453 11.5599 5.90532 15.7185C5.62688 20.5574 9.47848 24.5083 14.2689 24.5083C16.7854 24.5083 19.0383 23.4163 20.5731 21.6494L20.3914 22.663V23.5788C20.3914 24.051 20.7108 24.4892 21.1777 24.5732C21.791 24.6832 22.3244 24.2166 22.3244 23.6258V18.1404H17.0769C16.484 18.1404 16.0158 18.6725 16.1268 19.2831Z" fill="white"/>
    <path fill-rule="evenodd" clip-rule="evenodd" d="M127.548 19.5749V9.32086C127.548 8.59091 128.19 8 128.983 8C129.776 8 130.418 8.59091 130.418 9.32086V12.8142C131.116 11.9452 132.079 11.3021 133.57 11.3021C135.929 11.3021 138.176 13.0053 138.176 16.1163V16.1511C138.176 19.262 135.967 20.9652 133.57 20.9652C132.041 20.9652 131.097 20.3222 130.418 19.5749V19.5922C130.418 20.3048 129.776 20.8957 128.983 20.8957C128.19 20.8957 127.548 20.3048 127.548 19.5749ZM132.834 18.7233C134.174 18.7233 135.306 17.7152 135.306 16.1511V16.1163C135.306 14.5695 134.174 13.5441 132.834 13.5441C131.493 13.5441 130.38 14.5695 130.38 16.1163V16.1511C130.38 17.6979 131.493 18.7233 132.834 18.7233ZM148.674 12.6925V19.5749C148.674 20.3048 148.032 20.8957 147.239 20.8957C146.446 20.8957 145.804 20.3048 145.804 19.5749V19.4706C145.144 20.2527 144.294 20.9652 142.841 20.9652C140.67 20.9652 139.405 19.6444 139.405 17.5067V12.6925C139.405 11.9626 140.047 11.3717 140.84 11.3717C141.633 11.3717 142.274 11.9626 142.274 12.6925V16.6725C142.274 17.9238 142.916 18.5668 144.011 18.5668C145.106 18.5668 145.804 17.9238 145.804 16.6725V12.6925C145.804 11.9626 146.446 11.3717 147.239 11.3717C148.032 11.3717 148.674 11.9626 148.674 12.6925ZM153.98 20.9652C152.735 20.9652 151.394 20.635 150.167 19.9051C149.865 19.7313 149.62 19.4184 149.62 19.0013C149.62 18.4104 150.111 17.9586 150.753 17.9586C150.96 17.9586 151.168 18.0107 151.319 18.0976C152.282 18.6537 153.244 18.9318 154.056 18.9318C154.887 18.9318 155.264 18.6537 155.264 18.2366V18.2019C155.264 17.6283 154.282 17.4372 153.169 17.1243C151.753 16.742 150.149 16.1337 150.149 14.3262V14.2914C150.149 12.3971 151.81 11.3369 153.848 11.3369C154.905 11.3369 156 11.5976 156.982 12.0495C157.397 12.2406 157.661 12.5882 157.661 13.0401C157.661 13.631 157.152 14.0829 156.51 14.0829C156.302 14.0829 156.17 14.0481 155.981 13.9612C155.17 13.5963 154.396 13.3703 153.792 13.3703C153.093 13.3703 152.735 13.6484 152.735 14.0134V14.0481C152.735 14.5695 153.697 14.8128 154.792 15.1604C156.208 15.5949 157.85 16.2206 157.85 17.9238V17.9586C157.85 20.0267 156.17 20.9652 153.98 20.9652ZM159.061 9.2861V9.25134C159.061 8.48663 159.759 8.01738 160.665 8.01738C161.571 8.01738 162.27 8.48663 162.27 9.25134V9.2861C162.27 10.0508 161.571 10.5374 160.665 10.5374C159.759 10.5374 159.061 10.0508 159.061 9.2861ZM159.231 19.5749V12.6925C159.231 11.9626 159.873 11.3717 160.665 11.3717C161.458 11.3717 162.1 11.9626 162.1 12.6925V19.5749C162.1 20.3048 161.458 20.8957 160.665 20.8957C159.873 20.8957 159.231 20.3048 159.231 19.5749ZM163.99 19.5749V12.6925C163.99 11.9626 164.632 11.3717 165.425 11.3717C166.218 11.3717 166.859 11.9626 166.859 12.6925V12.7968C167.52 12.0147 168.37 11.3021 169.823 11.3021C171.994 11.3021 173.258 12.623 173.258 14.7607V19.5749C173.258 20.3048 172.617 20.8957 171.824 20.8957C171.031 20.8957 170.389 20.3048 170.389 19.5749V15.5949C170.389 14.3436 169.747 13.7005 168.653 13.7005C167.558 13.7005 166.859 14.3436 166.859 15.5949V19.5749C166.859 20.3048 166.218 20.8957 165.425 20.8957C164.632 20.8957 163.99 20.3048 163.99 19.5749ZM177.263 15.4037H181.586C181.416 14.2219 180.661 13.4225 179.453 13.4225C178.263 13.4225 177.489 14.2045 177.263 15.4037ZM183.247 19.8703C182.359 20.5655 181.208 21 179.736 21C176.697 21 174.45 19.0361 174.45 16.1858V16.1511C174.45 13.492 176.508 11.3021 179.453 11.3021C182.831 11.3021 184.323 13.857 184.323 15.7861C184.323 16.5508 183.737 17.0548 182.982 17.0548H177.301C177.584 18.254 178.49 18.8797 179.773 18.8797C180.566 18.8797 181.227 18.6537 181.812 18.254C182.02 18.115 182.208 18.0455 182.511 18.0455C183.152 18.0455 183.624 18.4973 183.624 19.0882C183.624 19.4358 183.454 19.6965 183.247 19.8703ZM189.252 20.9652C188.006 20.9652 186.666 20.635 185.439 19.9051C185.137 19.7313 184.892 19.4184 184.892 19.0013C184.892 18.4104 185.382 17.9586 186.024 17.9586C186.232 17.9586 186.439 18.0107 186.59 18.0976C187.553 18.6537 188.516 18.9318 189.328 18.9318C190.158 18.9318 190.536 18.6537 190.536 18.2366V18.2019C190.536 17.6283 189.554 17.4372 188.44 17.1243C187.025 16.742 185.42 16.1337 185.42 14.3262V14.2914C185.42 12.3971 187.081 11.3369 189.12 11.3369C190.177 11.3369 191.272 11.5976 192.253 12.0495C192.669 12.2406 192.933 12.5882 192.933 13.0401C192.933 13.631 192.423 14.0829 191.781 14.0829C191.574 14.0829 191.442 14.0481 191.253 13.9612C190.441 13.5963 189.667 13.3703 189.063 13.3703C188.365 13.3703 188.006 13.6484 188.006 14.0134V14.0481C188.006 14.5695 188.969 14.8128 190.064 15.1604C191.479 15.5949 193.122 16.2206 193.122 17.9238V17.9586C193.122 20.0267 191.442 20.9652 189.252 20.9652ZM197.73 20.9652C196.484 20.9652 195.144 20.635 193.917 19.9051C193.615 19.7313 193.37 19.4184 193.37 19.0013C193.37 18.4104 193.861 17.9586 194.502 17.9586C194.71 17.9586 194.918 18.0107 195.069 18.0976C196.031 18.6537 196.994 18.9318 197.806 18.9318C198.636 18.9318 199.014 18.6537 199.014 18.2366V18.2019C199.014 17.6283 198.032 17.4372 196.918 17.1243C195.503 16.742 193.898 16.1337 193.898 14.3262V14.2914C193.898 12.3971 195.559 11.3369 197.598 11.3369C198.655 11.3369 199.75 11.5976 200.731 12.0495C201.147 12.2406 201.411 12.5882 201.411 13.0401C201.411 13.631 200.901 14.0829 200.26 14.0829C200.052 14.0829 199.92 14.0481 199.731 13.9612C198.919 13.5963 198.145 13.3703 197.541 13.3703C196.843 13.3703 196.484 13.6484 196.484 14.0134V14.0481C196.484 14.5695 197.447 14.8128 198.542 15.1604C199.958 15.5949 201.6 16.2206 201.6 17.9238V17.9586C201.6 20.0267 199.92 20.9652 197.73 20.9652Z" fill="#15C39A"/>
</svg>
