<svg width="18" height="18" viewBox="0 0 18 18" fill="none" xmlns="http://www.w3.org/2000/svg">
    <g style="mix-blend-mode:multiply">
        <circle cx="9" cy="9" r="7" fill="#15C39A"/>
    </g>
    <path fill-rule="evenodd" clip-rule="evenodd" d="M8.99991 2.34365C5.32387 2.34365 2.34356 5.32367 2.34356 9C2.34356 12.676 5.32388 15.6563 8.99991 15.6563C12.6762 15.6563 15.6562 12.676 15.6562 9C15.6562 5.32366 12.6762 2.34365 8.99991 2.34365ZM1.59375 9C1.59375 4.90954 4.90978 1.59384 8.99991 1.59384C13.0904 1.59384 16.4061 4.90955 16.4061 9C16.4061 13.0901 13.0904 16.4062 8.99991 16.4062C4.90977 16.4062 1.59375 13.0901 1.59375 9Z" fill="black"/>
    <path fill-rule="evenodd" clip-rule="evenodd" d="M9.91803 10.5181C9.95961 10.7483 10.176 10.9061 10.4099 10.9061H11.1467L11.5737 10.8462C10.8905 11.8486 9.70404 12.3099 8.40693 12.1063C7.35101 11.9406 6.44398 11.2261 6.06124 10.2283C5.19242 7.96334 6.8466 5.80077 9.00214 5.80077C10.1256 5.80077 11.1112 6.47547 11.6762 7.26969C11.8263 7.48583 12.1231 7.54789 12.3395 7.39778C12.545 7.25532 12.6049 6.98477 12.4814 6.772C11.7 5.55223 10.2959 4.77176 8.71691 4.87754C6.66104 5.01541 4.99738 6.69772 4.87907 8.75481C4.74181 11.1485 6.64055 13.1029 9.00214 13.1029C10.2427 13.1029 11.3533 12.5627 12.1099 11.6887L12.0204 12.19V12.6431C12.0204 12.8767 12.1778 13.0934 12.408 13.135C12.7104 13.1894 12.9733 12.9586 12.9733 12.6663V9.95288H10.3864C10.0941 9.95288 9.86331 10.2161 9.91803 10.5181Z" fill="white"/>
</svg>
