<svg width="20" height="13" viewBox="0 0 20 13" fill="none" xmlns="http://www.w3.org/2000/svg">
    <path d="M14.2801 12C17.1742 12 19.5377 9.55275 19.5377 6.5C19.5377 3.44725 17.1983 1 14.2801 1C11.3619 1 9.02246 3.44725 9.02246 6.5C9.02246 9.55275 11.3619 12 14.2801 12Z" fill="#15C39A" stroke="#0E101A" stroke-width="0.5" stroke-miterlimit="10"/>
    <path d="M11.8906 6.49979L13.8027 8.49979L17.0635 4.55936" stroke="white" stroke-width="0.5" stroke-linecap="round"/>
    <path d="M5.67621 12C8.58025 12 10.9344 9.53757 10.9344 6.5C10.9344 3.46243 8.58025 1 5.67621 1C2.77216 1 0.417969 3.46243 0.417969 6.5C0.417969 9.53757 2.77216 12 5.67621 12Z" fill="#F8E485" stroke="#0E101A" stroke-width="0.5" stroke-miterlimit="10"/>
    <path d="M4.2334 8.39856C4.64014 8.70505 5.13941 8.88559 5.67899 8.88559C6.21857 8.88559 6.71783 8.70505 7.12458 8.39856" stroke="black" stroke-width="0.5"/>
    <path d="M3.39316 5.97975C3.64427 5.97975 3.84784 5.6974 3.84784 5.3491C3.84784 5.0008 3.64427 4.71845 3.39316 4.71845C3.14205 4.71845 2.93848 5.0008 2.93848 5.3491C2.93848 5.6974 3.14205 5.97975 3.39316 5.97975Z" fill="#0E101A"/>
    <path d="M7.91562 5.97975C8.16674 5.97975 8.3703 5.6974 8.3703 5.3491C8.3703 5.0008 8.16674 4.71845 7.91562 4.71845C7.66451 4.71845 7.46094 5.0008 7.46094 5.3491C7.46094 5.6974 7.66451 5.97975 7.91562 5.97975Z" fill="#0E101A"/>
</svg>
